<svg width="88" height="89" viewBox="0 0 88 89" fill="none" xmlns="http://www.w3.org/2000/svg">
<circle cx="44" cy="45" r="41.5" stroke="#FF4848" stroke-width="5"/>
<path d="M41.333 23H49.373V42.74L47.813 52.52H42.893L41.333 42.74V23ZM40.493 61.04C40.493 59.64 40.933 58.54 41.813 57.74C42.693 56.9 43.853 56.48 45.293 56.48C46.813 56.48 48.013 56.9 48.893 57.74C49.773 58.54 50.213 59.64 50.213 61.04C50.213 62.44 49.773 63.56 48.893 64.4C48.013 65.24 46.813 65.66 45.293 65.66C43.853 65.66 42.693 65.24 41.813 64.4C40.933 63.56 40.493 62.44 40.493 61.04Z" fill="#FF4848"/>
</svg>
