<svg width="132" height="138" viewBox="0 0 132 138" fill="none" xmlns="http://www.w3.org/2000/svg">
<circle cx="66" cy="72" r="63.5" stroke="#FF4848" stroke-width="5"/>
<path d="M60 38H73.4V70.9L70.8 87.2H62.6L60 70.9V38ZM58.6 101.4C58.6 99.0667 59.3333 97.2333 60.8 95.9C62.2667 94.5 64.2 93.8 66.6 93.8C69.1333 93.8 71.1333 94.5 72.6 95.9C74.0667 97.2333 74.8 99.0667 74.8 101.4C74.8 103.733 74.0667 105.6 72.6 107C71.1333 108.4 69.1333 109.1 66.6 109.1C64.2 109.1 62.2667 108.4 60.8 107C59.3333 105.6 58.6 103.733 58.6 101.4Z" fill="#FF4848"/>
</svg>
